<?xml version="1.0" encoding="UTF-8" standalone="no"?>
<!-- Generator: Adobe Illustrator 16.2.1, SVG Export Plug-In . SVG Version: 6.00 Build 0)  -->

<svg
   xmlns:dc="http://purl.org/dc/elements/1.1/"
   xmlns:cc="http://creativecommons.org/ns#"
   xmlns:rdf="http://www.w3.org/1999/02/22-rdf-syntax-ns#"
   xmlns:svg="http://www.w3.org/2000/svg"
   xmlns="http://www.w3.org/2000/svg"
   xmlns:sodipodi="http://sodipodi.sourceforge.net/DTD/sodipodi-0.dtd"
   xmlns:inkscape="http://www.inkscape.org/namespaces/inkscape"
   version="1.1"
   id="Layer_1"
   x="0px"
   y="0px"
   width="512px"
   height="512px"
   viewBox="0 0 512 512"
   style="enable-background:new 0 0 512 512;"
   xml:space="preserve"
   inkscape:version="0.48.4 r9939"
   sodipodi:docname="refresh.svg"><metadata
     id="metadata9"><rdf:RDF><cc:Work
         rdf:about=""><dc:format>image/svg+xml</dc:format><dc:type
           rdf:resource="http://purl.org/dc/dcmitype/StillImage" /><dc:title></dc:title></cc:Work></rdf:RDF></metadata><defs
     id="defs7" /><sodipodi:namedview
     pagecolor="#ffffff"
     bordercolor="#666666"
     borderopacity="1"
     objecttolerance="10"
     gridtolerance="10"
     guidetolerance="10"
     inkscape:pageopacity="0"
     inkscape:pageshadow="2"
     inkscape:window-width="1280"
     inkscape:window-height="977"
     id="namedview5"
     showgrid="false"
     inkscape:zoom="0.921875"
     inkscape:cx="-0.32695311"
     inkscape:cy="312.45831"
     inkscape:window-x="1277"
     inkscape:window-y="765"
     inkscape:window-maximized="1"
     inkscape:current-layer="Layer_1" /><path
     d="m 416,352 96,-111.9 -64.7,0 c -2.3,-27.9 -10.5,-54 -23.5,-77.3 -27.4,-49.2 -75.8,-85.1 -133,-95.6 -0.7,-0.1 -1.5,-0.3 -2.2,-0.4 -0.5,-0.1 -0.9,-0.2 -1.4,-0.2 C 277.1,64.9 266.6,64 256,64 c -0.1,0 -0.3,0 -0.4,0 l 0,0 c -90.9,0.2 -167,63.6 -186.7,148.6 l 0,0.1 c -0.3,1.1 -0.5,2.2 -0.7,3.3 -0.1,0.5 -0.2,0.9 -0.3,1.4 -0.1,0.7 -0.3,1.4 -0.4,2.1 -0.2,0.9 -0.3,1.7 -0.5,2.6 -0.1,0.4 -0.1,0.7 -0.2,1.1 -0.2,1.2 -0.4,2.4 -0.6,3.6 0,0.1 0,0.1 0,0.2 -1,6.3 -1.6,12.7 -1.9,19.1 0,0.3 0,0.6 0,0.8 -0.1,1.4 -0.1,2.7 -0.2,4.1 0,1.6 -0.1,3.3 -0.1,5 0,1.7 0,3.3 0.1,5 0,1.4 0.1,2.7 0.2,4.1 0,0.3 0,0.6 0,0.9 0.3,6.5 1,12.9 1.9,19.1 0,0.1 0,0.1 0,0.2 64.08008,-14.58624 3.624956,-3.16879 60.71525,-13.02881 C 126.91525,201.27119 185.4,128 256,128 c 66.4,0 122.8,46.6 129.5,112 l -73.5,0 z"
     id="path3"
     inkscape:connector-curvature="0"
     sodipodi:nodetypes="cccccccsccccccccccccccsccccccsccc" /></svg>